HIERARCHY
ROOT Hips
{
	OFFSET 0.000000 0.000000 0.000000
	CHANNELS 6 Xposition Yposition Zposition Xrotation Yrotation Zrotation
	JOINT LeftUpLeg_virtual
	{
		OFFSET 0.000000 0.000000 0.000000
		CHANNELS 3 Xrotation Yrotation Zrotation
		JOINT LeftUpLeg
		{
			OFFSET 10.205400 -3.823500 0.155100
			CHANNELS 3 Xrotation Yrotation Zrotation
			JOINT LeftLeg
			{
				OFFSET 0.708757 -12.982077 0.567790
				CHANNELS 3 Xrotation Yrotation Zrotation
				JOINT LeftFoot
				{
					OFFSET -0.708756 -10.717838 -2.184338
					CHANNELS 3 Xrotation Yrotation Zrotation
					JOINT LeftToeBase
					{
						OFFSET 0.108149 -7.191104 7.560241
						CHANNELS 3 Xrotation Yrotation Zrotation
						JOINT LeftToe_End
						{
							OFFSET 0.070230 0.081724 4.490308
							CHANNELS 3 Xrotation Yrotation Zrotation
							End Site
							{
								OFFSET 0 0 0
							}
						}
					}
				}
			}
		}
	}
	JOINT RightUpLeg_virtual
	{
		OFFSET 0.000000 0.000000 0.000000
		CHANNELS 3 Xrotation Yrotation Zrotation
		JOINT RightUpLeg
		{
			OFFSET -10.205400 -3.823500 0.005500
			CHANNELS 3 Xrotation Yrotation Zrotation
			JOINT RightLeg
			{
				OFFSET -0.708756 -12.982134 0.610632
				CHANNELS 3 Xrotation Yrotation Zrotation
				JOINT RightFoot
				{
					OFFSET 0.708754 -10.717769 -1.945823
					CHANNELS 3 Xrotation Yrotation Zrotation
					JOINT RightToeBase
					{
						OFFSET -0.108140 -7.191069 7.372968
						CHANNELS 3 Xrotation Yrotation Zrotation
						JOINT RightToe_End
						{
							OFFSET -0.070227 0.081735 4.479403
							CHANNELS 3 Xrotation Yrotation Zrotation
							End Site
							{
								OFFSET 0 0 0
							}
						}
					}
				}
			}
		}
	}
	JOINT Spine_virtual
	{
		OFFSET 0.000000 0.000000 0.000000
		CHANNELS 3 Xrotation Yrotation Zrotation
		JOINT Spine
		{
			OFFSET 0.000000 6.876099 0.125700
			CHANNELS 3 Xrotation Yrotation Zrotation
			JOINT Spine1
			{
				OFFSET 0.000000 5.730043 0.104720
				CHANNELS 3 Xrotation Yrotation Zrotation
				JOINT Spine1_split
				{
					OFFSET 0.000000 5.730043 0.104720
					CHANNELS 3 Xrotation Yrotation Zrotation
					JOINT Spine2
					{
						OFFSET 0.000000 5.730043 0.104720
						CHANNELS 3 Xrotation Yrotation Zrotation
						JOINT Neck_virtual
						{
							OFFSET 0.000000 0.000000 0.000000
							CHANNELS 3 Xrotation Yrotation Zrotation
							JOINT Neck
							{
								OFFSET 0.000000 10.314075 0.188496
								CHANNELS 3 Xrotation Yrotation Zrotation
								JOINT Head
								{
									OFFSET 0.000000 7.643700 -2.377400
									CHANNELS 3 Xrotation Yrotation Zrotation
									JOINT HeadTop_End
									{
										OFFSET 0.000000 43.788605 -13.619600
										CHANNELS 3 Xrotation Yrotation Zrotation
										End Site
										{
											OFFSET 0 0 0
										}
									}
								}
							}
						}
						JOINT LeftShoulder_virtual
						{
							OFFSET 0.000000 0.000000 0.000000
							CHANNELS 3 Xrotation Yrotation Zrotation
							JOINT LeftShoulder
							{
								OFFSET 2.196100 4.412489 0.087492
								CHANNELS 3 Xrotation Yrotation Zrotation
								JOINT LeftShoulder_split
								{
									OFFSET 2.196100 4.412489 0.087492
									CHANNELS 3 Xrotation Yrotation Zrotation
									JOINT LeftArm
									{
										OFFSET 8.771219 -2.981674 -0.026999
										CHANNELS 3 Xrotation Yrotation Zrotation
										JOINT LeftForeArm
										{
											OFFSET 8.512804 0.000000 -0.000000
											CHANNELS 3 Xrotation Yrotation Zrotation
											JOINT LeftHand
											{
												OFFSET 18.484802 0.000000 -0.000000
												CHANNELS 3 Xrotation Yrotation Zrotation
												End Site
												{
													OFFSET 0 0 0
												}
											}
										}
									}
								}
							}
						}
						JOINT RightShoulder_virtual
						{
							OFFSET 0.000000 0.000000 0.000000
							CHANNELS 3 Xrotation Yrotation Zrotation
							JOINT RightShoulder
							{
								OFFSET -2.196100 4.412496 0.070690
								CHANNELS 3 Xrotation Yrotation Zrotation
								JOINT RightShoulder_split
								{
									OFFSET -2.196100 4.412496 0.070690
									CHANNELS 3 Xrotation Yrotation Zrotation
									JOINT RightArm
									{
										OFFSET -8.771282 -2.981682 -0.094208
										CHANNELS 3 Xrotation Yrotation Zrotation
										JOINT RightForeArm
										{
											OFFSET -8.494598 0.000000 0.000000
											CHANNELS 3 Xrotation Yrotation Zrotation
											JOINT RightHand
											{
												OFFSET -18.483803 0.000000 0.000001
												CHANNELS 3 Xrotation Yrotation Zrotation
												End Site
												{
													OFFSET 0 0 0
												}
											}
										}
									}
								}
							}
						}
					}
				}
			}
		}
	}
}
MOTION
Frames: 5
Frame Time: 0.03333333
-91.887421 34.124435 -3.665564 0.000000 0.000000 0.000000 6.001203 2.339014 2.363699 -24.396065 16.721200 11.092173 17.029344 1.857322 6.938083 5.403394 -1.844049 -16.302379 -2.130131 -2.654167 -7.452300 0.000000 0.000000 0.000000 6.145882 4.217495 1.962521 2.078751 -8.123094 -8.905924 4.284929 11.685648 7.178458 -18.629122 -9.882889 8.850513 7.761592 12.041773 -26.369996 0.000000 0.000000 0.000000 6.055454 4.962893 1.287384 -1.073698 2.409430 2.887142 2.375506 -0.355709 0.969323 0.136947 -0.273316 -0.129208 0.000000 0.000000 0.000000 2.976465 1.748860 0.222983 -2.714841 1.332574 -5.117515 -20.595857 -36.281722 -34.456484 0.000000 0.000000 0.000000 2.443235 -0.444672 -0.531136 0.635421 -9.047759 -13.125417 -2.132236 -0.974887 -1.893085 10.751957 -7.394328 -66.499234 0.070911 -10.567666 2.613592 0.000000 0.000000 0.000000 3.933563 1.153547 0.817179 -2.610424 1.247354 14.227819 10.140775 2.413412 -0.220159 9.083181 -0.521510 62.831457 1.052816 22.441784 -0.813533 0.000000 0.000000 0.000000 
-91.887390 34.103870 -3.580452 0.000000 0.000000 0.000000 6.227477 2.008531 2.369259 -24.503637 16.593299 10.924978 17.238303 2.145774 7.030976 5.190624 -1.864026 -15.618848 -2.267840 -2.630961 -7.305434 0.000000 0.000000 0.000000 6.263744 3.792881 1.969078 1.800465 -8.274008 -8.773309 4.608156 12.139375 6.889097 -18.778398 -9.419632 8.180532 7.688470 12.352766 -26.386761 0.000000 0.000000 0.000000 6.272931 4.625665 1.253635 -1.205492 2.586266 3.059260 2.434552 -0.322089 0.938336 0.213175 -0.336805 -0.113337 0.000000 0.000000 0.000000 2.810137 1.725689 0.248753 -2.895364 1.281667 -5.010975 -21.224077 -37.439443 -36.941918 0.000000 0.000000 0.000000 2.311531 -0.469139 -0.595691 0.655036 -7.730673 -12.920394 -2.000525 -1.222607 -1.597680 9.583917 -8.386226 -65.728488 0.228614 -12.130337 2.651079 0.000000 0.000000 0.000000 3.978943 1.176544 0.783052 -2.593200 0.995287 13.268942 9.869660 2.488597 -0.135397 9.588238 1.196933 61.835588 1.065478 24.886773 -1.098083 0.000000 0.000000 0.000000 
-91.900368 34.111462 -3.481190 0.000000 0.000000 0.000000 6.533267 1.706160 2.391950 -24.767815 16.462791 10.887423 17.530637 2.439610 7.096091 5.253919 -1.963091 -15.270804 -2.592243 -2.590879 -6.904795 0.000000 0.000000 0.000000 6.473254 3.431262 1.966911 1.654560 -8.515736 -8.564004 4.628922 12.518255 6.571459 -18.973712 -8.907654 7.533851 7.588940 12.715119 -26.384136 0.000000 0.000000 0.000000 6.609571 4.317681 1.249284 -1.376019 2.663058 3.106509 2.520837 -0.257777 0.955932 0.293630 -0.391053 -0.100834 0.000000 0.000000 0.000000 2.713787 1.760469 0.360866 -3.051657 1.113925 -4.820396 -21.994276 -38.572752 -39.263397 0.000000 0.000000 0.000000 2.192347 -0.424735 -0.536177 0.698569 -6.161736 -12.195133 -1.664212 -1.424974 -1.242440 8.056656 -8.686340 -65.301683 0.498833 -17.235911 2.805252 0.000000 0.000000 0.000000 3.996913 1.212162 0.804887 -2.553191 0.523652 12.034587 9.809616 2.630526 -0.118399 10.117080 3.133899 60.595553 1.160924 29.955482 -1.480716 0.000000 0.000000 0.000000 
-91.928238 34.146935 -3.366652 0.000000 0.000000 0.000000 6.967586 1.521483 2.385037 -25.253409 16.422626 10.994096 17.870884 2.859153 7.145973 5.474360 -2.071517 -14.933888 -2.775488 -2.558860 -6.224224 0.000000 0.000000 0.000000 6.839009 3.264214 1.932293 1.586750 -8.836320 -8.214178 4.347222 12.712503 6.240640 -19.074545 -8.420122 6.802342 7.341078 13.154632 -26.248058 0.000000 0.000000 0.000000 7.104408 4.009308 1.279498 -1.556926 2.633077 3.054570 2.621985 -0.163721 1.017535 0.337427 -0.400881 -0.092748 0.000000 0.000000 0.000000 2.714394 1.824221 0.534392 -3.225925 0.885470 -4.560451 -22.820027 -39.414283 -41.189323 0.000000 0.000000 0.000000 2.071641 -0.321860 -0.377393 0.733997 -4.483089 -11.113048 -1.279996 -1.589874 -0.769101 5.965725 -8.281124 -65.240389 0.946430 -25.532359 3.087663 0.000000 0.000000 0.000000 3.966647 1.247152 0.863427 -2.547317 -0.129093 10.502637 9.915292 2.857542 -0.131617 10.503801 4.846993 59.262929 1.350740 37.759731 -1.957602 0.000000 0.000000 0.000000 
-91.964775 34.199379 -3.256832 0.000000 0.000000 0.000000 7.586850 1.439029 2.340178 -26.160675 16.369440 11.233397 18.286687 3.275604 7.219071 5.777879 -2.171429 -14.543623 -2.513890 -2.530431 -5.397375 0.000000 0.000000 0.000000 7.440765 3.294474 1.870971 1.362521 -9.299351 -7.811824 3.959267 12.690057 5.922755 -19.075166 -8.033265 5.800660 7.206063 13.627292 -25.899961 0.000000 0.000000 0.000000 7.842497 3.634922 1.324088 -1.737782 2.518528 2.948611 2.740131 -0.071188 1.089163 0.317068 -0.377885 -0.067902 0.000000 0.000000 0.000000 2.799109 1.857334 0.722441 -3.555367 0.668020 -4.245716 -23.637900 -39.590966 -42.479016 0.000000 0.000000 0.000000 1.943278 -0.206989 -0.205954 0.735404 -2.928641 -9.909565 -0.973041 -1.644792 -0.396493 2.963259 -7.508418 -65.435152 1.525152 -35.356966 3.467643 0.000000 0.000000 0.000000 3.908262 1.255766 0.922512 -2.627530 -0.859861 8.788405 10.100773 3.044956 -0.104675 10.396683 5.998788 58.020142 1.626049 47.500066 -2.489818 0.000000 0.000000 0.000000 
